<?xml version="1.0" encoding="iso-8859-1"?>
<!-- Generator: Adobe Illustrator 16.0.0, SVG Export Plug-In . SVG Version: 6.00 Build 0)  -->
<!DOCTYPE svg PUBLIC "-//W3C//DTD SVG 1.1//EN" "http://www.w3.org/Graphics/SVG/1.1/DTD/svg11.dtd">
<svg version="1.1" id="Capa_1" xmlns="http://www.w3.org/2000/svg" xmlns:xlink="http://www.w3.org/1999/xlink" x="0px" y="0px"
	 width="585.918px" height="585.918px" viewBox="0 0 585.918 585.918" style="enable-background:new 0 0 585.918 585.918;"
	 xml:space="preserve">
<g>
	<path d="M357.396,535.33c0.776,0.047,1.542,0.109,2.329,0.109h177.39c20.75,0,37.627-16.883,37.627-37.627V86.597
		c0-20.743-16.877-37.628-37.627-37.628h-177.39c-0.781,0-1.553,0.077-2.329,0.113V0L11.176,46.206v492.311l346.22,47.401V535.33z
		 M359.726,70.476h177.39c8.893,0,16.125,7.236,16.125,16.126v411.22c0,8.893-7.232,16.127-16.125,16.127h-177.39
		c-0.792,0-1.563-0.127-2.329-0.243V357.753l81.59,25.107V253.772l-12.016,27.344l-15.748,34.751l-53.826-15.223v-9.287
		l46.036,13.023l27.791-61.268l-42.515-2.457l53.544-3.457l41.67,3.226l-37.554,2.16l24.85,54.831l72.384-20.47l-20.956-38.289
		l0.01-0.205l-0.135-0.01l-0.125-0.236l-1.696,0.097l-78.405-6.038l-84.889,5.452V70.711
		C358.162,70.599,358.929,70.476,359.726,70.476z M113.046,329.231c-6.236,2.111-17.933,4.888-29.468,4.578
		c-15.729-0.408-26.942-4.935-34.656-13.291c-7.665-8.012-11.83-19.976-11.707-33.366c0.124-30.299,20.303-48.147,48.421-48.893
		c11.31-0.296,20.105,1.858,24.486,4.008l-4.231,17.239c-4.869-2.171-10.896-3.898-20.501-3.735
		c-16.281,0.283-28.365,10.32-28.365,30.299c0,19.014,10.961,30.411,26.939,30.684c4.528,0.068,8.161-0.426,9.715-1.229V295.84
		l-13.449-0.067v-16.478l32.828-0.134v50.07H113.046z M196.53,335.741l-73.313-1.88v-11.632l44.25-66.227v-0.585l-40.192,0.653
		v-17.902l68.526-1.775v12.966l-44.567,66.507v0.571l45.292,0.72v18.583H196.53z M233.444,336.682l-22.834-0.584V236.005
		l22.834-0.585V336.682z M285.387,301.312c-3.184-0.021-6.027-0.205-8.242-0.525v37.013l-23.559-0.598V236.265
		c7.284-1.398,17.567-2.58,32.274-2.974c15.079-0.391,25.96,2.128,33.341,7.591c7.097,5.197,11.896,13.931,11.896,24.344
		c0,0.252-0.021,0.491-0.031,0.737l-8.494,15.536l4.331,1.223c-1.602,2.914-3.627,5.507-6.058,7.706
		C312.313,298.083,299.799,301.421,285.387,301.312z"/>
	<path d="M287.14,251.008c-4.937,0.092-8.251,0.604-9.995,1.097v30.565c2.05,0.456,4.581,0.613,8.084,0.595
		c12.964-0.016,21.047-6.412,21.047-17.163C306.276,256.444,299.316,250.792,287.14,251.008z"/>
	<polygon points="454.21,281.644 443.9,255.407 443.9,382.86 528.863,356.717 528.863,291.772 466.783,309.326 	"/>
</g>
<g>
</g>
<g>
</g>
<g>
</g>
<g>
</g>
<g>
</g>
<g>
</g>
<g>
</g>
<g>
</g>
<g>
</g>
<g>
</g>
<g>
</g>
<g>
</g>
<g>
</g>
<g>
</g>
<g>
</g>
</svg>
