<?xml version="1.0" encoding="UTF-8" standalone="no"?>
<!DOCTYPE svg PUBLIC "-//W3C//DTD SVG 1.1//EN"
 "http://www.w3.org/Graphics/SVG/1.1/DTD/svg11.dtd">
<!-- Generated by graphviz version 2.38.0 (20140413.2041)
 -->
<!-- Title: %3 Pages: 1 -->
<svg width="2241pt" height="620pt"
 viewBox="0.00 0.00 2240.50 620.00" xmlns="http://www.w3.org/2000/svg" xmlns:xlink="http://www.w3.org/1999/xlink">
<g id="graph0" class="graph" transform="scale(1 1) rotate(0) translate(4 616)">
<title>%3</title>
<polygon fill="white" stroke="none" points="-4,4 -4,-616 2236.5,-616 2236.5,4 -4,4"/>
<!-- [root] aws_api_gateway_base_path_mapping.site_api -->
<g id="node1" class="node"><title>[root] aws_api_gateway_base_path_mapping.site_api</title>
<polygon fill="none" stroke="black" points="1412.5,-468 1131.5,-468 1131.5,-432 1412.5,-432 1412.5,-468"/>
<text text-anchor="middle" x="1272" y="-446.3" font-family="Times New Roman,serif" font-size="14.00">aws_api_gateway_base_path_mapping.site_api</text>
</g>
<!-- [root] aws_api_gateway_deployment.site_api -->
<g id="node2" class="node"><title>[root] aws_api_gateway_deployment.site_api</title>
<polygon fill="none" stroke="black" points="1389,-396 1155,-396 1155,-360 1389,-360 1389,-396"/>
<text text-anchor="middle" x="1272" y="-374.3" font-family="Times New Roman,serif" font-size="14.00">aws_api_gateway_deployment.site_api</text>
</g>
<!-- [root] aws_api_gateway_base_path_mapping.site_api&#45;&gt;[root] aws_api_gateway_deployment.site_api -->
<g id="edge1" class="edge"><title>[root] aws_api_gateway_base_path_mapping.site_api&#45;&gt;[root] aws_api_gateway_deployment.site_api</title>
<path fill="none" stroke="black" d="M1272,-431.697C1272,-423.983 1272,-414.712 1272,-406.112"/>
<polygon fill="black" stroke="black" points="1275.5,-406.104 1272,-396.104 1268.5,-406.104 1275.5,-406.104"/>
</g>
<!-- [root] aws_api_gateway_integration.authentication_post -->
<g id="node3" class="node"><title>[root] aws_api_gateway_integration.authentication_post</title>
<polygon fill="none" stroke="black" points="1095.5,-324 802.5,-324 802.5,-288 1095.5,-288 1095.5,-324"/>
<text text-anchor="middle" x="949" y="-302.3" font-family="Times New Roman,serif" font-size="14.00">aws_api_gateway_integration.authentication_post</text>
</g>
<!-- [root] aws_api_gateway_deployment.site_api&#45;&gt;[root] aws_api_gateway_integration.authentication_post -->
<g id="edge2" class="edge"><title>[root] aws_api_gateway_deployment.site_api&#45;&gt;[root] aws_api_gateway_integration.authentication_post</title>
<path fill="none" stroke="black" d="M1193.4,-359.966C1146.32,-349.762 1086.34,-336.764 1037.58,-326.198"/>
<polygon fill="black" stroke="black" points="1038.19,-322.748 1027.67,-324.05 1036.71,-329.589 1038.19,-322.748"/>
</g>
<!-- [root] aws_api_gateway_integration.users_post -->
<g id="node4" class="node"><title>[root] aws_api_gateway_integration.users_post</title>
<polygon fill="none" stroke="black" points="1397.5,-324 1152.5,-324 1152.5,-288 1397.5,-288 1397.5,-324"/>
<text text-anchor="middle" x="1275" y="-302.3" font-family="Times New Roman,serif" font-size="14.00">aws_api_gateway_integration.users_post</text>
</g>
<!-- [root] aws_api_gateway_deployment.site_api&#45;&gt;[root] aws_api_gateway_integration.users_post -->
<g id="edge3" class="edge"><title>[root] aws_api_gateway_deployment.site_api&#45;&gt;[root] aws_api_gateway_integration.users_post</title>
<path fill="none" stroke="black" d="M1272.74,-359.697C1273.07,-351.983 1273.47,-342.712 1273.84,-334.112"/>
<polygon fill="black" stroke="black" points="1277.34,-334.245 1274.27,-324.104 1270.34,-333.945 1277.34,-334.245"/>
</g>
<!-- [root] aws_api_gateway_method.authentication_post -->
<g id="node5" class="node"><title>[root] aws_api_gateway_method.authentication_post</title>
<polygon fill="none" stroke="black" points="804.5,-252 527.5,-252 527.5,-216 804.5,-216 804.5,-252"/>
<text text-anchor="middle" x="666" y="-230.3" font-family="Times New Roman,serif" font-size="14.00">aws_api_gateway_method.authentication_post</text>
</g>
<!-- [root] aws_api_gateway_integration.authentication_post&#45;&gt;[root] aws_api_gateway_method.authentication_post -->
<g id="edge4" class="edge"><title>[root] aws_api_gateway_integration.authentication_post&#45;&gt;[root] aws_api_gateway_method.authentication_post</title>
<path fill="none" stroke="black" d="M880.132,-287.966C839.301,-277.866 787.401,-265.028 744.922,-254.521"/>
<polygon fill="black" stroke="black" points="745.724,-251.114 735.177,-252.111 744.044,-257.91 745.724,-251.114"/>
</g>
<!-- [root] aws_lambda_function.authentication -->
<g id="node15" class="node"><title>[root] aws_lambda_function.authentication</title>
<polygon fill="none" stroke="black" points="1076,-252 856,-252 856,-216 1076,-216 1076,-252"/>
<text text-anchor="middle" x="966" y="-230.3" font-family="Times New Roman,serif" font-size="14.00">aws_lambda_function.authentication</text>
</g>
<!-- [root] aws_api_gateway_integration.authentication_post&#45;&gt;[root] aws_lambda_function.authentication -->
<g id="edge5" class="edge"><title>[root] aws_api_gateway_integration.authentication_post&#45;&gt;[root] aws_lambda_function.authentication</title>
<path fill="none" stroke="black" d="M953.202,-287.697C955.096,-279.898 957.377,-270.509 959.484,-261.829"/>
<polygon fill="black" stroke="black" points="962.887,-262.648 961.846,-252.104 956.085,-260.996 962.887,-262.648"/>
</g>
<!-- [root] aws_api_gateway_method.users_post -->
<g id="node6" class="node"><title>[root] aws_api_gateway_method.users_post</title>
<polygon fill="none" stroke="black" points="1336,-252 1106,-252 1106,-216 1336,-216 1336,-252"/>
<text text-anchor="middle" x="1221" y="-230.3" font-family="Times New Roman,serif" font-size="14.00">aws_api_gateway_method.users_post</text>
</g>
<!-- [root] aws_api_gateway_integration.users_post&#45;&gt;[root] aws_api_gateway_method.users_post -->
<g id="edge6" class="edge"><title>[root] aws_api_gateway_integration.users_post&#45;&gt;[root] aws_api_gateway_method.users_post</title>
<path fill="none" stroke="black" d="M1261.65,-287.697C1255.24,-279.389 1247.44,-269.277 1240.39,-260.141"/>
<polygon fill="black" stroke="black" points="1243.07,-257.884 1234.19,-252.104 1237.53,-262.16 1243.07,-257.884"/>
</g>
<!-- [root] aws_lambda_function.users -->
<g id="node16" class="node"><title>[root] aws_lambda_function.users</title>
<polygon fill="none" stroke="black" points="1533.5,-252 1360.5,-252 1360.5,-216 1533.5,-216 1533.5,-252"/>
<text text-anchor="middle" x="1447" y="-230.3" font-family="Times New Roman,serif" font-size="14.00">aws_lambda_function.users</text>
</g>
<!-- [root] aws_api_gateway_integration.users_post&#45;&gt;[root] aws_lambda_function.users -->
<g id="edge7" class="edge"><title>[root] aws_api_gateway_integration.users_post&#45;&gt;[root] aws_lambda_function.users</title>
<path fill="none" stroke="black" d="M1317.08,-287.876C1340.8,-278.222 1370.62,-266.087 1395.7,-255.878"/>
<polygon fill="black" stroke="black" points="1397.12,-259.08 1405.06,-252.068 1394.48,-252.596 1397.12,-259.08"/>
</g>
<!-- [root] aws_api_gateway_resource.authentication -->
<g id="node11" class="node"><title>[root] aws_api_gateway_resource.authentication</title>
<polygon fill="none" stroke="black" points="791.5,-180 540.5,-180 540.5,-144 791.5,-144 791.5,-180"/>
<text text-anchor="middle" x="666" y="-158.3" font-family="Times New Roman,serif" font-size="14.00">aws_api_gateway_resource.authentication</text>
</g>
<!-- [root] aws_api_gateway_method.authentication_post&#45;&gt;[root] aws_api_gateway_resource.authentication -->
<g id="edge8" class="edge"><title>[root] aws_api_gateway_method.authentication_post&#45;&gt;[root] aws_api_gateway_resource.authentication</title>
<path fill="none" stroke="black" d="M666,-215.697C666,-207.983 666,-198.712 666,-190.112"/>
<polygon fill="black" stroke="black" points="669.5,-190.104 666,-180.104 662.5,-190.104 669.5,-190.104"/>
</g>
<!-- [root] aws_api_gateway_resource.users -->
<g id="node12" class="node"><title>[root] aws_api_gateway_resource.users</title>
<polygon fill="none" stroke="black" points="1012.5,-180 809.5,-180 809.5,-144 1012.5,-144 1012.5,-180"/>
<text text-anchor="middle" x="911" y="-158.3" font-family="Times New Roman,serif" font-size="14.00">aws_api_gateway_resource.users</text>
</g>
<!-- [root] aws_api_gateway_method.users_post&#45;&gt;[root] aws_api_gateway_resource.users -->
<g id="edge9" class="edge"><title>[root] aws_api_gateway_method.users_post&#45;&gt;[root] aws_api_gateway_resource.users</title>
<path fill="none" stroke="black" d="M1145.56,-215.966C1100.47,-205.783 1043.05,-192.818 996.311,-182.264"/>
<polygon fill="black" stroke="black" points="997.033,-178.839 986.507,-180.05 995.491,-185.667 997.033,-178.839"/>
</g>
<!-- [root] aws_api_gateway_method_response.authentication_post_201 -->
<g id="node7" class="node"><title>[root] aws_api_gateway_method_response.authentication_post_201</title>
<polygon fill="none" stroke="black" points="742,-468 380,-468 380,-432 742,-432 742,-468"/>
<text text-anchor="middle" x="561" y="-446.3" font-family="Times New Roman,serif" font-size="14.00">aws_api_gateway_method_response.authentication_post_201</text>
</g>
<!-- [root] aws_api_gateway_method_response.authentication_post_201&#45;&gt;[root] aws_api_gateway_method.authentication_post -->
<g id="edge10" class="edge"><title>[root] aws_api_gateway_method_response.authentication_post_201&#45;&gt;[root] aws_api_gateway_method.authentication_post</title>
<path fill="none" stroke="black" d="M569.415,-431.849C587.731,-394.519 631.313,-305.695 653.116,-261.259"/>
<polygon fill="black" stroke="black" points="656.282,-262.752 657.545,-252.232 649.998,-259.668 656.282,-262.752"/>
</g>
<!-- [root] aws_api_gateway_method_response.authentication_post_400 -->
<g id="node8" class="node"><title>[root] aws_api_gateway_method_response.authentication_post_400</title>
<polygon fill="none" stroke="black" points="362,-468 0,-468 0,-432 362,-432 362,-468"/>
<text text-anchor="middle" x="181" y="-446.3" font-family="Times New Roman,serif" font-size="14.00">aws_api_gateway_method_response.authentication_post_400</text>
</g>
<!-- [root] aws_api_gateway_method_response.authentication_post_400&#45;&gt;[root] aws_api_gateway_method.authentication_post -->
<g id="edge11" class="edge"><title>[root] aws_api_gateway_method_response.authentication_post_400&#45;&gt;[root] aws_api_gateway_method.authentication_post</title>
<path fill="none" stroke="black" d="M219.87,-431.849C307.864,-393.023 522.1,-298.494 618.095,-256.137"/>
<polygon fill="black" stroke="black" points="619.546,-259.323 627.282,-252.084 616.72,-252.918 619.546,-259.323"/>
</g>
<!-- [root] aws_api_gateway_method_response.users_post_201 -->
<g id="node9" class="node"><title>[root] aws_api_gateway_method_response.users_post_201</title>
<polygon fill="none" stroke="black" points="1745.5,-468 1430.5,-468 1430.5,-432 1745.5,-432 1745.5,-468"/>
<text text-anchor="middle" x="1588" y="-446.3" font-family="Times New Roman,serif" font-size="14.00">aws_api_gateway_method_response.users_post_201</text>
</g>
<!-- [root] aws_api_gateway_method_response.users_post_201&#45;&gt;[root] aws_api_gateway_method.users_post -->
<g id="edge12" class="edge"><title>[root] aws_api_gateway_method_response.users_post_201&#45;&gt;[root] aws_api_gateway_method.users_post</title>
<path fill="none" stroke="black" d="M1573.55,-431.916C1544.93,-399.149 1477.57,-327.252 1406,-288 1379.55,-273.494 1348.74,-262.627 1319.94,-254.638"/>
<polygon fill="black" stroke="black" points="1320.83,-251.251 1310.26,-252.037 1319.01,-258.012 1320.83,-251.251"/>
</g>
<!-- [root] aws_api_gateway_method_response.users_post_400 -->
<g id="node10" class="node"><title>[root] aws_api_gateway_method_response.users_post_400</title>
<polygon fill="none" stroke="black" points="1113.5,-468 798.5,-468 798.5,-432 1113.5,-432 1113.5,-468"/>
<text text-anchor="middle" x="956" y="-446.3" font-family="Times New Roman,serif" font-size="14.00">aws_api_gateway_method_response.users_post_400</text>
</g>
<!-- [root] aws_api_gateway_method_response.users_post_400&#45;&gt;[root] aws_api_gateway_method.users_post -->
<g id="edge13" class="edge"><title>[root] aws_api_gateway_method_response.users_post_400&#45;&gt;[root] aws_api_gateway_method.users_post</title>
<path fill="none" stroke="black" d="M976.835,-431.893C1005.71,-408.075 1059.38,-363.404 1104,-324 1121.68,-308.386 1124.53,-302.669 1143,-288 1156.25,-277.477 1171.52,-266.811 1185.01,-257.834"/>
<polygon fill="black" stroke="black" points="1187.15,-260.616 1193.58,-252.197 1183.31,-254.767 1187.15,-260.616"/>
</g>
<!-- [root] aws_api_gateway_rest_api.site_api -->
<g id="node13" class="node"><title>[root] aws_api_gateway_rest_api.site_api</title>
<polygon fill="none" stroke="black" points="1017.5,-108 804.5,-108 804.5,-72 1017.5,-72 1017.5,-108"/>
<text text-anchor="middle" x="911" y="-86.3" font-family="Times New Roman,serif" font-size="14.00">aws_api_gateway_rest_api.site_api</text>
</g>
<!-- [root] aws_api_gateway_resource.authentication&#45;&gt;[root] aws_api_gateway_rest_api.site_api -->
<g id="edge14" class="edge"><title>[root] aws_api_gateway_resource.authentication&#45;&gt;[root] aws_api_gateway_rest_api.site_api</title>
<path fill="none" stroke="black" d="M725.62,-143.966C760.448,-134.015 804.578,-121.406 841.044,-110.987"/>
<polygon fill="black" stroke="black" points="842.458,-114.223 851.112,-108.111 840.535,-107.493 842.458,-114.223"/>
</g>
<!-- [root] aws_api_gateway_resource.users&#45;&gt;[root] aws_api_gateway_rest_api.site_api -->
<g id="edge15" class="edge"><title>[root] aws_api_gateway_resource.users&#45;&gt;[root] aws_api_gateway_rest_api.site_api</title>
<path fill="none" stroke="black" d="M911,-143.697C911,-135.983 911,-126.712 911,-118.112"/>
<polygon fill="black" stroke="black" points="914.5,-118.104 911,-108.104 907.5,-118.104 914.5,-118.104"/>
</g>
<!-- [root] provider.aws -->
<g id="node24" class="node"><title>[root] provider.aws</title>
<polygon fill="none" stroke="black" points="1290,-36 1208.39,-18 1290,-3.55271e-015 1371.61,-18 1290,-36"/>
<text text-anchor="middle" x="1290" y="-14.3" font-family="Times New Roman,serif" font-size="14.00">provider.aws</text>
</g>
<!-- [root] aws_api_gateway_rest_api.site_api&#45;&gt;[root] provider.aws -->
<g id="edge16" class="edge"><title>[root] aws_api_gateway_rest_api.site_api&#45;&gt;[root] provider.aws</title>
<path fill="none" stroke="black" d="M1003.23,-71.9656C1076.76,-58.3847 1177.1,-39.8526 1237.51,-28.6941"/>
<polygon fill="black" stroke="black" points="1238.39,-32.092 1247.58,-26.8339 1237.12,-25.2085 1238.39,-32.092"/>
</g>
<!-- [root] aws_iam_role.lambda_role -->
<g id="node14" class="node"><title>[root] aws_iam_role.lambda_role</title>
<polygon fill="none" stroke="black" points="1530.5,-180 1363.5,-180 1363.5,-144 1530.5,-144 1530.5,-180"/>
<text text-anchor="middle" x="1447" y="-158.3" font-family="Times New Roman,serif" font-size="14.00">aws_iam_role.lambda_role</text>
</g>
<!-- [root] aws_iam_role.lambda_role&#45;&gt;[root] provider.aws -->
<g id="edge17" class="edge"><title>[root] aws_iam_role.lambda_role&#45;&gt;[root] provider.aws</title>
<path fill="none" stroke="black" d="M1428.06,-143.871C1399.16,-117.734 1344.14,-67.9668 1312.99,-39.7949"/>
<polygon fill="black" stroke="black" points="1315.01,-36.9042 1305.25,-32.7921 1310.32,-42.0958 1315.01,-36.9042"/>
</g>
<!-- [root] aws_lambda_function.authentication&#45;&gt;[root] aws_iam_role.lambda_role -->
<g id="edge18" class="edge"><title>[root] aws_lambda_function.authentication&#45;&gt;[root] aws_iam_role.lambda_role</title>
<path fill="none" stroke="black" d="M1076.16,-218.516C1166.52,-206.535 1288.46,-190.12 1353.13,-180.084"/>
<polygon fill="black" stroke="black" points="1354.05,-183.483 1363.38,-178.469 1352.96,-176.568 1354.05,-183.483"/>
</g>
<!-- [root] data.aws_s3_bucket_object.s3_build_artifact_bucket -->
<g id="node20" class="node"><title>[root] data.aws_s3_bucket_object.s3_build_artifact_bucket</title>
<polygon fill="none" stroke="black" points="1345.5,-180 1030.5,-180 1030.5,-144 1345.5,-144 1345.5,-180"/>
<text text-anchor="middle" x="1188" y="-158.3" font-family="Times New Roman,serif" font-size="14.00">data.aws_s3_bucket_object.s3_build_artifact_bucket</text>
</g>
<!-- [root] aws_lambda_function.authentication&#45;&gt;[root] data.aws_s3_bucket_object.s3_build_artifact_bucket -->
<g id="edge19" class="edge"><title>[root] aws_lambda_function.authentication&#45;&gt;[root] data.aws_s3_bucket_object.s3_build_artifact_bucket</title>
<path fill="none" stroke="black" d="M1020.02,-215.966C1051.45,-206.057 1091.23,-193.514 1124.19,-183.121"/>
<polygon fill="black" stroke="black" points="1125.25,-186.456 1133.73,-180.111 1123.14,-179.78 1125.25,-186.456"/>
</g>
<!-- [root] aws_lambda_function.users&#45;&gt;[root] aws_iam_role.lambda_role -->
<g id="edge20" class="edge"><title>[root] aws_lambda_function.users&#45;&gt;[root] aws_iam_role.lambda_role</title>
<path fill="none" stroke="black" d="M1447,-215.697C1447,-207.983 1447,-198.712 1447,-190.112"/>
<polygon fill="black" stroke="black" points="1450.5,-190.104 1447,-180.104 1443.5,-190.104 1450.5,-190.104"/>
</g>
<!-- [root] aws_security_group.site_api -->
<g id="node18" class="node"><title>[root] aws_security_group.site_api</title>
<polygon fill="none" stroke="black" points="1725,-180 1549,-180 1549,-144 1725,-144 1725,-180"/>
<text text-anchor="middle" x="1637" y="-158.3" font-family="Times New Roman,serif" font-size="14.00">aws_security_group.site_api</text>
</g>
<!-- [root] aws_lambda_function.users&#45;&gt;[root] aws_security_group.site_api -->
<g id="edge21" class="edge"><title>[root] aws_lambda_function.users&#45;&gt;[root] aws_security_group.site_api</title>
<path fill="none" stroke="black" d="M1493.48,-215.876C1519.92,-206.137 1553.2,-193.872 1581.06,-183.608"/>
<polygon fill="black" stroke="black" points="1582.5,-186.81 1590.67,-180.068 1580.08,-180.241 1582.5,-186.81"/>
</g>
<!-- [root] aws_lambda_function.users&#45;&gt;[root] data.aws_s3_bucket_object.s3_build_artifact_bucket -->
<g id="edge22" class="edge"><title>[root] aws_lambda_function.users&#45;&gt;[root] data.aws_s3_bucket_object.s3_build_artifact_bucket</title>
<path fill="none" stroke="black" d="M1383.97,-215.966C1346.84,-205.93 1299.7,-193.19 1260.97,-182.721"/>
<polygon fill="black" stroke="black" points="1261.88,-179.341 1251.31,-180.111 1260.05,-186.099 1261.88,-179.341"/>
</g>
<!-- [root] data.aws_subnet_ids.private -->
<g id="node22" class="node"><title>[root] data.aws_subnet_ids.private</title>
<polygon fill="none" stroke="black" points="1918.5,-180 1743.5,-180 1743.5,-144 1918.5,-144 1918.5,-180"/>
<text text-anchor="middle" x="1831" y="-158.3" font-family="Times New Roman,serif" font-size="14.00">data.aws_subnet_ids.private</text>
</g>
<!-- [root] aws_lambda_function.users&#45;&gt;[root] data.aws_subnet_ids.private -->
<g id="edge23" class="edge"><title>[root] aws_lambda_function.users&#45;&gt;[root] data.aws_subnet_ids.private</title>
<path fill="none" stroke="black" d="M1533.66,-217.203C1592.96,-206.394 1671.67,-192.044 1733.22,-180.825"/>
<polygon fill="black" stroke="black" points="1734.12,-184.218 1743.33,-178.981 1732.86,-177.332 1734.12,-184.218"/>
</g>
<!-- [root] aws_lambda_permission.authentication -->
<g id="node17" class="node"><title>[root] aws_lambda_permission.authentication</title>
<polygon fill="none" stroke="black" points="888.5,-396 653.5,-396 653.5,-360 888.5,-360 888.5,-396"/>
<text text-anchor="middle" x="771" y="-374.3" font-family="Times New Roman,serif" font-size="14.00">aws_lambda_permission.authentication</text>
</g>
<!-- [root] aws_lambda_permission.authentication&#45;&gt;[root] aws_api_gateway_method.authentication_post -->
<g id="edge24" class="edge"><title>[root] aws_lambda_permission.authentication&#45;&gt;[root] aws_api_gateway_method.authentication_post</title>
<path fill="none" stroke="black" d="M758.335,-359.871C740.045,-335.137 706.109,-289.242 684.865,-260.512"/>
<polygon fill="black" stroke="black" points="687.47,-258.149 678.71,-252.189 681.842,-262.311 687.47,-258.149"/>
</g>
<!-- [root] aws_lambda_permission.authentication&#45;&gt;[root] aws_lambda_function.authentication -->
<g id="edge25" class="edge"><title>[root] aws_lambda_permission.authentication&#45;&gt;[root] aws_lambda_function.authentication</title>
<path fill="none" stroke="black" d="M770.489,-359.918C770.844,-340.065 774.509,-307.536 793,-288 807.54,-272.638 826.4,-261.691 846.302,-253.898"/>
<polygon fill="black" stroke="black" points="847.626,-257.141 855.823,-250.428 845.229,-250.564 847.626,-257.141"/>
</g>
<!-- [root] data.aws_vpc.vpc -->
<g id="node23" class="node"><title>[root] data.aws_vpc.vpc</title>
<polygon fill="none" stroke="black" points="1696.5,-108 1577.5,-108 1577.5,-72 1696.5,-72 1696.5,-108"/>
<text text-anchor="middle" x="1637" y="-86.3" font-family="Times New Roman,serif" font-size="14.00">data.aws_vpc.vpc</text>
</g>
<!-- [root] aws_security_group.site_api&#45;&gt;[root] data.aws_vpc.vpc -->
<g id="edge26" class="edge"><title>[root] aws_security_group.site_api&#45;&gt;[root] data.aws_vpc.vpc</title>
<path fill="none" stroke="black" d="M1637,-143.697C1637,-135.983 1637,-126.712 1637,-118.112"/>
<polygon fill="black" stroke="black" points="1640.5,-118.104 1637,-108.104 1633.5,-118.104 1640.5,-118.104"/>
</g>
<!-- [root] aws_security_group_rule.private_egress_all -->
<g id="node19" class="node"><title>[root] aws_security_group_rule.private_egress_all</title>
<polygon fill="none" stroke="black" points="2063.5,-468 1802.5,-468 1802.5,-432 2063.5,-432 2063.5,-468"/>
<text text-anchor="middle" x="1933" y="-446.3" font-family="Times New Roman,serif" font-size="14.00">aws_security_group_rule.private_egress_all</text>
</g>
<!-- [root] aws_security_group_rule.private_egress_all&#45;&gt;[root] aws_security_group.site_api -->
<g id="edge27" class="edge"><title>[root] aws_security_group_rule.private_egress_all&#45;&gt;[root] aws_security_group.site_api</title>
<path fill="none" stroke="black" d="M1915.37,-431.966C1865.11,-383.399 1720.93,-244.098 1662.28,-187.425"/>
<polygon fill="black" stroke="black" points="1664.54,-184.738 1654.91,-180.306 1659.67,-189.772 1664.54,-184.738"/>
</g>
<!-- [root] data.aws_s3_bucket_object.s3_build_artifact_bucket&#45;&gt;[root] provider.aws -->
<g id="edge28" class="edge"><title>[root] data.aws_s3_bucket_object.s3_build_artifact_bucket&#45;&gt;[root] provider.aws</title>
<path fill="none" stroke="black" d="M1200.3,-143.871C1218.55,-118.469 1252.83,-70.7461 1273.32,-42.221"/>
<polygon fill="black" stroke="black" points="1276.21,-44.1944 1279.2,-34.0306 1270.53,-40.1106 1276.21,-44.1944"/>
</g>
<!-- [root] data.aws_subnet.private -->
<g id="node21" class="node"><title>[root] data.aws_subnet.private</title>
<polygon fill="none" stroke="black" points="2232.5,-468 2081.5,-468 2081.5,-432 2232.5,-432 2232.5,-468"/>
<text text-anchor="middle" x="2157" y="-446.3" font-family="Times New Roman,serif" font-size="14.00">data.aws_subnet.private</text>
</g>
<!-- [root] data.aws_subnet.private&#45;&gt;[root] data.aws_subnet_ids.private -->
<g id="edge29" class="edge"><title>[root] data.aws_subnet.private&#45;&gt;[root] data.aws_subnet_ids.private</title>
<path fill="none" stroke="black" d="M2137.58,-431.966C2082.11,-383.3 1922.79,-243.529 1858.45,-187.079"/>
<polygon fill="black" stroke="black" points="1860.55,-184.27 1850.73,-180.306 1855.94,-189.532 1860.55,-184.27"/>
</g>
<!-- [root] data.aws_subnet_ids.private&#45;&gt;[root] data.aws_vpc.vpc -->
<g id="edge30" class="edge"><title>[root] data.aws_subnet_ids.private&#45;&gt;[root] data.aws_vpc.vpc</title>
<path fill="none" stroke="black" d="M1783.54,-143.876C1756.43,-134.094 1722.26,-121.765 1693.74,-111.474"/>
<polygon fill="black" stroke="black" points="1694.9,-108.17 1684.3,-108.068 1692.52,-114.755 1694.9,-108.17"/>
</g>
<!-- [root] data.aws_vpc.vpc&#45;&gt;[root] provider.aws -->
<g id="edge31" class="edge"><title>[root] data.aws_vpc.vpc&#45;&gt;[root] provider.aws</title>
<path fill="none" stroke="black" d="M1577.35,-76.9666C1510.53,-63.4882 1403.39,-41.8741 1340.54,-29.1952"/>
<polygon fill="black" stroke="black" points="1340.96,-25.7103 1330.47,-27.1637 1339.58,-32.5721 1340.96,-25.7103"/>
</g>
<!-- [root] meta.count&#45;boundary (count boundary fixup) -->
<g id="node25" class="node"><title>[root] meta.count&#45;boundary (count boundary fixup)</title>
<ellipse fill="none" stroke="black" cx="1109" cy="-522" rx="198.465" ry="18"/>
<text text-anchor="middle" x="1109" y="-518.3" font-family="Times New Roman,serif" font-size="14.00">[root] meta.count&#45;boundary (count boundary fixup)</text>
</g>
<!-- [root] meta.count&#45;boundary (count boundary fixup)&#45;&gt;[root] aws_api_gateway_base_path_mapping.site_api -->
<g id="edge32" class="edge"><title>[root] meta.count&#45;boundary (count boundary fixup)&#45;&gt;[root] aws_api_gateway_base_path_mapping.site_api</title>
<path fill="none" stroke="black" d="M1148.04,-504.233C1170.49,-494.592 1198.9,-482.391 1222.86,-472.102"/>
<polygon fill="black" stroke="black" points="1224.34,-475.278 1232.14,-468.116 1221.57,-468.846 1224.34,-475.278"/>
</g>
<!-- [root] meta.count&#45;boundary (count boundary fixup)&#45;&gt;[root] aws_api_gateway_method_response.authentication_post_201 -->
<g id="edge33" class="edge"><title>[root] meta.count&#45;boundary (count boundary fixup)&#45;&gt;[root] aws_api_gateway_method_response.authentication_post_201</title>
<path fill="none" stroke="black" d="M999.092,-506.961C914.381,-496.14 796.541,-481.087 704.412,-469.319"/>
<polygon fill="black" stroke="black" points="704.809,-465.841 694.446,-468.046 703.922,-472.785 704.809,-465.841"/>
</g>
<!-- [root] meta.count&#45;boundary (count boundary fixup)&#45;&gt;[root] aws_api_gateway_method_response.authentication_post_400 -->
<g id="edge34" class="edge"><title>[root] meta.count&#45;boundary (count boundary fixup)&#45;&gt;[root] aws_api_gateway_method_response.authentication_post_400</title>
<path fill="none" stroke="black" d="M954.515,-510.697C807.565,-500.713 579.978,-484.773 372.207,-468.09"/>
<polygon fill="black" stroke="black" points="372.263,-464.583 362.015,-467.269 371.702,-471.56 372.263,-464.583"/>
</g>
<!-- [root] meta.count&#45;boundary (count boundary fixup)&#45;&gt;[root] aws_api_gateway_method_response.users_post_201 -->
<g id="edge35" class="edge"><title>[root] meta.count&#45;boundary (count boundary fixup)&#45;&gt;[root] aws_api_gateway_method_response.users_post_201</title>
<path fill="none" stroke="black" d="M1208.83,-506.411C1282.19,-495.69 1382.42,-481.043 1461.41,-469.5"/>
<polygon fill="black" stroke="black" points="1462.03,-472.946 1471.42,-468.036 1461.02,-466.019 1462.03,-472.946"/>
</g>
<!-- [root] meta.count&#45;boundary (count boundary fixup)&#45;&gt;[root] aws_api_gateway_method_response.users_post_400 -->
<g id="edge36" class="edge"><title>[root] meta.count&#45;boundary (count boundary fixup)&#45;&gt;[root] aws_api_gateway_method_response.users_post_400</title>
<path fill="none" stroke="black" d="M1072.35,-504.233C1051.47,-494.678 1025.08,-482.606 1002.72,-472.375"/>
<polygon fill="black" stroke="black" points="1003.96,-469.094 993.411,-468.116 1001.05,-475.459 1003.96,-469.094"/>
</g>
<!-- [root] meta.count&#45;boundary (count boundary fixup)&#45;&gt;[root] aws_lambda_permission.authentication -->
<g id="edge37" class="edge"><title>[root] meta.count&#45;boundary (count boundary fixup)&#45;&gt;[root] aws_lambda_permission.authentication</title>
<path fill="none" stroke="black" d="M948.955,-511.279C881.287,-503.859 812.652,-490.829 789,-468 772.655,-452.224 769.008,-426.009 768.942,-406.105"/>
<polygon fill="black" stroke="black" points="772.442,-406.17 769.201,-396.083 765.444,-405.989 772.442,-406.17"/>
</g>
<!-- [root] meta.count&#45;boundary (count boundary fixup)&#45;&gt;[root] aws_security_group_rule.private_egress_all -->
<g id="edge38" class="edge"><title>[root] meta.count&#45;boundary (count boundary fixup)&#45;&gt;[root] aws_security_group_rule.private_egress_all</title>
<path fill="none" stroke="black" d="M1250.48,-509.38C1439.4,-493.863 1750.88,-468.276 1754,-468 1766.27,-466.913 1779.01,-465.758 1791.78,-464.581"/>
<polygon fill="black" stroke="black" points="1792.38,-468.04 1802.02,-463.633 1791.74,-461.07 1792.38,-468.04"/>
</g>
<!-- [root] meta.count&#45;boundary (count boundary fixup)&#45;&gt;[root] data.aws_subnet.private -->
<g id="edge39" class="edge"><title>[root] meta.count&#45;boundary (count boundary fixup)&#45;&gt;[root] data.aws_subnet.private</title>
<path fill="none" stroke="black" d="M1246.74,-509.023C1269.86,-507.204 1293.6,-505.453 1316,-504 1648.4,-482.443 1736.43,-508.58 2071.12,-467.988"/>
<polygon fill="black" stroke="black" points="2071.59,-471.456 2081.09,-466.767 2070.74,-464.508 2071.59,-471.456"/>
</g>
<!-- [root] provider.aws (close) -->
<g id="node26" class="node"><title>[root] provider.aws (close)</title>
<ellipse fill="none" stroke="black" cx="1434" cy="-522" rx="108.581" ry="18"/>
<text text-anchor="middle" x="1434" y="-518.3" font-family="Times New Roman,serif" font-size="14.00">[root] provider.aws (close)</text>
</g>
<!-- [root] provider.aws (close)&#45;&gt;[root] aws_api_gateway_base_path_mapping.site_api -->
<g id="edge40" class="edge"><title>[root] provider.aws (close)&#45;&gt;[root] aws_api_gateway_base_path_mapping.site_api</title>
<path fill="none" stroke="black" d="M1396.83,-504.941C1374.32,-495.213 1345.34,-482.691 1320.97,-472.161"/>
<polygon fill="black" stroke="black" points="1322.11,-468.838 1311.54,-468.084 1319.33,-475.264 1322.11,-468.838"/>
</g>
<!-- [root] provider.aws (close)&#45;&gt;[root] aws_api_gateway_method_response.authentication_post_201 -->
<g id="edge41" class="edge"><title>[root] provider.aws (close)&#45;&gt;[root] aws_api_gateway_method_response.authentication_post_201</title>
<path fill="none" stroke="black" d="M1357.62,-509.144C1343.79,-507.24 1329.48,-505.43 1316,-504 1082.54,-479.244 1023.17,-484.728 789,-468 776.972,-467.141 764.588,-466.246 752.102,-465.336"/>
<polygon fill="black" stroke="black" points="752.3,-461.842 742.072,-464.604 751.79,-468.823 752.3,-461.842"/>
</g>
<!-- [root] provider.aws (close)&#45;&gt;[root] aws_api_gateway_method_response.authentication_post_400 -->
<g id="edge42" class="edge"><title>[root] provider.aws (close)&#45;&gt;[root] aws_api_gateway_method_response.authentication_post_400</title>
<path fill="none" stroke="black" d="M1358.92,-508.978C1344.69,-507.043 1329.91,-505.264 1316,-504 900.689,-466.278 792.144,-494.292 371.988,-468.039"/>
<polygon fill="black" stroke="black" points="372.205,-464.546 362.005,-467.409 371.764,-471.532 372.205,-464.546"/>
</g>
<!-- [root] provider.aws (close)&#45;&gt;[root] aws_api_gateway_method_response.users_post_201 -->
<g id="edge43" class="edge"><title>[root] provider.aws (close)&#45;&gt;[root] aws_api_gateway_method_response.users_post_201</title>
<path fill="none" stroke="black" d="M1469.33,-504.941C1490.64,-495.256 1518.04,-482.802 1541.14,-472.301"/>
<polygon fill="black" stroke="black" points="1542.76,-475.409 1550.41,-468.084 1539.86,-469.036 1542.76,-475.409"/>
</g>
<!-- [root] provider.aws (close)&#45;&gt;[root] aws_api_gateway_method_response.users_post_400 -->
<g id="edge44" class="edge"><title>[root] provider.aws (close)&#45;&gt;[root] aws_api_gateway_method_response.users_post_400</title>
<path fill="none" stroke="black" d="M1355.6,-509.519C1281.52,-498.67 1169.11,-482.209 1082.37,-469.506"/>
<polygon fill="black" stroke="black" points="1082.86,-466.04 1072.46,-468.054 1081.84,-472.966 1082.86,-466.04"/>
</g>
<!-- [root] provider.aws (close)&#45;&gt;[root] aws_lambda_permission.authentication -->
<g id="edge45" class="edge"><title>[root] provider.aws (close)&#45;&gt;[root] aws_lambda_permission.authentication</title>
<path fill="none" stroke="black" d="M1539.93,-517.783C1622.22,-512.787 1726.78,-500.104 1754,-468 1764.35,-455.797 1765,-443.614 1754,-432 1746.73,-424.326 1162.94,-396.829 898.572,-384.755"/>
<polygon fill="black" stroke="black" points="898.683,-381.257 888.534,-384.297 898.364,-388.249 898.683,-381.257"/>
</g>
<!-- [root] provider.aws (close)&#45;&gt;[root] aws_security_group_rule.private_egress_all -->
<g id="edge46" class="edge"><title>[root] provider.aws (close)&#45;&gt;[root] aws_security_group_rule.private_egress_all</title>
<path fill="none" stroke="black" d="M1513.9,-509.792C1591.25,-498.94 1709.92,-482.294 1801.26,-469.48"/>
<polygon fill="black" stroke="black" points="1802,-472.911 1811.41,-468.056 1801.02,-465.979 1802,-472.911"/>
</g>
<!-- [root] provider.aws (close)&#45;&gt;[root] data.aws_subnet.private -->
<g id="edge47" class="edge"><title>[root] provider.aws (close)&#45;&gt;[root] data.aws_subnet.private</title>
<path fill="none" stroke="black" d="M1536.61,-516.101C1660.85,-509.351 1876.55,-495.01 2070.95,-468.051"/>
<polygon fill="black" stroke="black" points="2071.66,-471.487 2081.07,-466.633 2070.68,-464.554 2071.66,-471.487"/>
</g>
<!-- [root] root -->
<g id="node27" class="node"><title>[root] root</title>
<ellipse fill="none" stroke="black" cx="1271" cy="-594" rx="49.2915" ry="18"/>
<text text-anchor="middle" x="1271" y="-590.3" font-family="Times New Roman,serif" font-size="14.00">[root] root</text>
</g>
<!-- [root] root&#45;&gt;[root] meta.count&#45;boundary (count boundary fixup) -->
<g id="edge48" class="edge"><title>[root] root&#45;&gt;[root] meta.count&#45;boundary (count boundary fixup)</title>
<path fill="none" stroke="black" d="M1240.15,-579.669C1216.66,-569.52 1183.9,-555.365 1157,-543.741"/>
<polygon fill="black" stroke="black" points="1158.32,-540.499 1147.75,-539.745 1155.54,-546.925 1158.32,-540.499"/>
</g>
<!-- [root] root&#45;&gt;[root] provider.aws (close) -->
<g id="edge49" class="edge"><title>[root] root&#45;&gt;[root] provider.aws (close)</title>
<path fill="none" stroke="black" d="M1301.66,-579.834C1325.83,-569.453 1359.93,-554.807 1387.47,-542.983"/>
<polygon fill="black" stroke="black" points="1389.1,-546.092 1396.91,-538.93 1386.34,-539.66 1389.1,-546.092"/>
</g>
</g>
</svg>
